Coordinates
version=1
nRows=4
nColumns=114
inDegrees=yes

Units are S.I. units (second, meters, Newtons, ...)
If the header above contains a line with 'inDegrees', this indicates whether rotational values are in degrees (yes) or radians (no).

endheader 
time	pelvis_tilt	pelvis_list	pelvis_rotation	pelvis_tx	pelvis_ty	pelvis_tz	hip_flexion_l	hip_adduction_l	hip_rotation_l	hip_flexion_r	hip_adduction_r	hip_rotation_r	knee_angle_l	knee_angle_r	ankle_angle_l	ankle_angle_r	subtalar_angle_l	subtalar_angle_r	mtp_angle_l	mtp_angle_r	lumbar_extension	lumbar_bending	lumbar_rotation	arm_flex_l	arm_add_l	arm_rot_l	arm_flex_r	arm_add_r	arm_rot_r	elbow_flex_l	elbow_flex_r	pro_sup_l	pro_sup_r	addbrev_l/activation	addlong_l/activation	addmagDist_l/activation	addmagIsch_l/activation	addmagMid_l/activation	addmagProx_l/activation	bflh_l/activation	bfsh_l/activation	edl_l/activation	ehl_l/activation	fdl_l/activation	fhl_l/activation	gaslat_l/activation	gasmed_l/activation	glmax1_l/activation	glmax2_l/activation	glmax3_l/activation	glmed1_l/activation	glmed2_l/activation	glmed3_l/activation	glmin1_l/activation	glmin2_l/activation	glmin3_l/activation	grac_l/activation	iliacus_l/activation	perbrev_l/activation	perlong_l/activation	piri_l/activation	psoas_l/activation	recfem_l/activation	sart_l/activation	semimem_l/activation	semiten_l/activation	soleus_l/activation	tfl_l/activation	tibant_l/activation	tibpost_l/activation	vasint_l/activation	vaslat_l/activation	vasmed_l/activation	addbrev_r/activation	addlong_r/activation	addmagDist_r/activation	addmagIsch_r/activation	addmagMid_r/activation	addmagProx_r/activation	bflh_r/activation	bfsh_r/activation	edl_r/activation	ehl_r/activation	fdl_r/activation	fhl_r/activation	gaslat_r/activation	gasmed_r/activation	glmax1_r/activation	glmax2_r/activation	glmax3_r/activation	glmed1_r/activation	glmed2_r/activation	glmed3_r/activation	glmin1_r/activation	glmin2_r/activation	glmin3_r/activation	grac_r/activation	iliacus_r/activation	perbrev_r/activation	perlong_r/activation	piri_r/activation	psoas_r/activation	recfem_r/activation	sart_r/activation	semimem_r/activation	semiten_r/activation	soleus_r/activation	tfl_r/activation	tibant_r/activation	tibpost_r/activation	vasint_r/activation	vaslat_r/activation	vasmed_r/activation	
          2.65000000	          3.62907705	          0.32879112	        -34.75185118	          1.35943217	          0.88933805	          0.40799792	         34.56266127	         -7.93354320	        -10.05983818	        -18.84093639	         -4.13883563	         -3.26607035	         28.12770258	         16.49579930	         -1.23969028	         26.53180642	        -15.01522921	         -5.23532086	         -0.10763976	        -22.07061434	        -15.33540767	         -3.36068199	          8.86426818	          1.49772251	        -17.47550366	         28.44700166	         -1.64367378	        -19.91645455	         15.76204013	         35.70963885	         32.71968943	         73.25402293	         70.85880255	          0.01039710	          0.01028879	          0.01033193	          0.01034700	          0.01034775	          0.01068194	          0.09441304	          0.16906079	          0.15531794	          0.06321320	          0.01229474	          0.01096220	          0.06412174	          0.12600652	          0.02790878	          0.01320124	          0.01027612	          0.02067191	          0.03679384	          0.11164940	          0.01798313	          0.03407509	          0.07129447	          0.01184449	          0.12718797	          0.07801681	          0.11416852	          0.28636390	          0.21077507	          0.10836110	          0.24377649	          0.07957917	          0.04957035	          0.01012297	          0.06604198	          0.19889864	          0.01053395	          0.01014712	          0.01004764	          0.01010384	          0.01023851	          0.01015933	          0.01028830	          0.01073380	          0.01020121	          0.01019663	          0.01023707	          0.02254268	          0.01149429	          0.01178334	          0.01719860	          0.02359861	          0.28715470	          0.82041025	          0.01026839	          0.01022481	          0.01013044	          0.35118364	          0.01058546	          0.01016757	          0.23367298	          0.01120106	          0.01034728	          0.01029732	          0.21322892	          0.04518165	          0.14393209	          0.01012374	          0.01938164	          0.47875185	          0.05459132	          0.01757656	          0.01087452	          0.30112985	          0.29670549	          0.01241290	          0.01621676	          0.02265623	          0.02114306	          0.02147260	
          2.66000000	          3.40051348	          0.11955053	        -35.16763227	          1.36657255	          0.88716199	          0.40998502	         35.23838163	         -8.51851110	         -9.86880174	        -19.31470885	         -4.19373234	         -3.15101440	         27.38491371	         16.27268186	         -2.20345235	         26.22248943	        -14.79880499	         -4.95268531	         -0.09061442	        -22.82994298	        -15.17855029	         -3.08689555	          9.23147618	          1.38064737	        -17.27944975	         28.50047276	         -1.13865951	        -20.01468397	         15.77401452	         35.49491040	         33.16086074	         73.22115060	         71.00827314	          0.01015854	          0.01009836	          0.01017845	          0.01015948	          0.01017805	          0.01036310	          0.10119878	          0.14841885	          0.16881382	          0.07171983	          0.01204325	          0.01094948	          0.07549024	          0.12467330	          0.03940489	          0.03622935	          0.01023267	          0.01736564	          0.03085603	          0.09345627	          0.01539201	          0.02872232	          0.06008683	          0.01064847	          0.10603866	          0.08275703	          0.11546944	          0.25296255	          0.17568592	          0.09031589	          0.20931989	          0.17261210	          0.04198091	          0.01013498	          0.05517313	          0.22583796	          0.01055009	          0.01015737	          0.01005002	          0.01010985	          0.01025751	          0.01019393	          0.01021893	          0.01039407	          0.01018192	          0.01018267	          0.01015915	          0.03981605	          0.02953386	          0.01993565	          0.01539861	          0.01988680	          0.32340775	          0.85964305	          0.01014623	          0.01011213	          0.01008201	          0.29275848	          0.01028468	          0.01010922	          0.30603478	          0.01084153	          0.01025230	          0.01030662	          0.22873452	          0.09267567	          0.15946219	          0.01008789	          0.01650463	          0.51460392	          0.10432044	          0.01467030	          0.01039337	          0.25326525	          0.30531651	          0.01289511	          0.01372578	          0.01893292	          0.01763658	          0.01793427	
          2.67000000	          3.27707135	         -0.07654698	        -35.56694883	          1.37441135	          0.88536798	          0.41235465	         35.65948714	         -9.02747447	         -9.74267589	        -19.94866456	         -4.32072587	         -3.05960033	         26.70821329	         16.00867362	         -3.06667134	         25.79805788	        -14.56997959	         -4.74070965	         -0.08287120	        -23.55380459	        -14.99738348	         -2.90956838	          9.55462353	          1.28406542	        -17.14699069	         28.63891186	         -0.64768998	        -20.00288858	         15.89475566	         35.18133571	         33.46610736	         73.20543429	         71.14261753	          0.01019705	          0.01011573	          0.01046999	          0.01057847	          0.01031630	          0.01041621	          0.09666007	          0.19383231	          0.16473335	          0.07280000	          0.01153186	          0.01063400	          0.07754889	          0.10473706	          0.03298384	          0.03028644	          0.01254344	          0.01461081	          0.02580011	          0.07796332	          0.01352939	          0.02411900	          0.05028159	          0.02054914	          0.08844171	          0.08067492	          0.10504617	          0.21137029	          0.14646702	          0.07528186	          0.17506756	          0.15540295	          0.03655243	          0.01007535	          0.04606888	          0.22477244	          0.01035982	          0.01010225	          0.01003247	          0.01007189	          0.01017526	          0.01012797	          0.01015811	          0.01030761	          0.01012536	          0.01012256	          0.01011035	          0.03465895	          0.02543047	          0.01773579	          0.01401499	          0.01696961	          0.37862547	          0.90834709	          0.01010637	          0.01008486	          0.01006058	          0.24401125	          0.01018448	          0.01007549	          0.39369141	          0.01046195	          0.01016748	          0.01019605	          0.33820501	          0.09416256	          0.15968675	          0.01006149	          0.01429900	          0.54432471	          0.10240303	          0.01225220	          0.01024865	          0.25096171	          0.30663901	          0.01136693	          0.01175580	          0.01585653	          0.01472358	          0.01500779	
          2.68000000	          3.32892775	         -0.25626052	        -35.95617804	          1.38298464	          0.88393942	          0.41508185	         35.77252435	         -9.40794416	         -9.66484009	        -20.82494071	         -4.57091338	         -2.99490700	         26.22695917	         15.65794362	         -3.85653607	         25.22112396	        -14.38911621	         -4.58891314	         -0.07777042	        -24.33092757	        -14.84313888	         -2.86004139	          9.74323242	          1.03796440	        -17.03611687	         28.54397536	          0.07642235	        -20.03310603	         17.02484100	         34.73952719	         33.58624185	         73.49592513	         70.82980128	          0.01098264	          0.01066992	          0.01072098	          0.01054757	          0.01092711	          0.01390940	          0.08057436	          0.16209968	          0.14930106	          0.06406252	          0.01171394	          0.01067209	          0.06476400	          0.08737580	          0.02754017	          0.02527097	          0.01099124	          0.01226108	          0.02154804	          0.06501179	          0.01180427	          0.02021654	          0.04202572	          0.02070942	          0.07484158	          0.06818153	          0.08782691	          0.19602062	          0.14886273	          0.06276256	          0.21987038	          0.12951135	          0.03052808	          0.01009499	          0.03856815	          0.19806317	          0.01036169	          0.01007889	          0.01002504	          0.01005562	          0.01015991	          0.01012454	          0.01012640	          0.01021144	          0.01010604	          0.01011038	          0.01008434	          0.03056246	          0.02191973	          0.01601857	          0.01469452	          0.01497666	          0.44833783	          0.96612142	          0.01009724	          0.01007515	          0.01005081	          0.20336491	          0.01018720	          0.01007611	          0.43478773	          0.01052433	          0.01018201	          0.01017660	          0.47848856	          0.08461267	          0.16063492	          0.01006749	          0.01746133	          0.53424578	          0.15139544	          0.01025847	          0.01016346	          0.25110368	          0.28482763	          0.01090138	          0.01145879	          0.01330726	          0.01230232	          0.01258520	
